# xmcd
#
# Track frame offsets: 
#        150
#        13726
#        27566
#        41345
#        54756
#        71644
#        82677
#        94480
#        106277
#        116193
#        129627
#
# Disc length: 1893 seconds
#
# Revision: 0
# Processed by: cddbd v1.5.2PL0 Copyright (c) Steve Scherf et al.
# Submitted via: ExactAudioCopy v0.99pb4
#
DISCID=8d07630b
DTITLE=Gwen McCrae - Lay It On Me: The Columbia Years
DYEAR=1972
DGENRE=Soul
TTITLE0=Ain't Nothing You Can Do
TTITLE1=Goin' Down The Road Feelin' Bad
TTITLE2=He's Not You
TTITLE3=Leave The Driving To Us
TTITLE4=You Were Always On My Mind
TTITLE5=Been So Long [(Mono)]
TTITLE6=I'm Losing The Feeling [(Mono)]
TTITLE7=Lay It On Me [(Mono)]
TTITLE8=Lead Me On [Album Version]
TTITLE9=Like Yesterday Our Love Is Gone [(Mono)]
TTITLE10=Lovin' In The Lay-A-Way [(Mono)]
EXTD=
EXTT0=
EXTT1=
EXTT2=
EXTT3=
EXTT4=
EXTT5=
EXTT6=
EXTT7=
EXTT8=
EXTT9=
EXTT10=
PLAYORDER=
